# xmcd
#
# Track frame offsets: 
#        150
#        15802
#        30604
#        46565
#        60072
#        77008
#        91808
#        104156
#        116681
#        131666
#        143194
#
# Disc length: 2138 seconds
#
# Revision: 0
# Processed by: cddbd v1.5.2PL0 Copyright (c) Steve Scherf et al.
# Submitted via: ExactAudioCopy v0.99pb5
#
DISCID=7c08580b
DTITLE=Don Williams - My Heart To You
DYEAR=2004
DGENRE=Country
TTITLE0=Wonderful Tonight
TTITLE1=When I'm With You
TTITLE2=The Rose
TTITLE3=I'll Be Faithful To You
TTITLE4=Oh Misery
TTITLE5=My Heart To You
TTITLE6=One Like Me
TTITLE7=Years From Now
TTITLE8=Get Away
TTITLE9=Fly Away
TTITLE10=Running In The Fast Lane
EXTD=
EXTT0=
EXTT1=
EXTT2=
EXTT3=
EXTT4=
EXTT5=
EXTT6=
EXTT7=
EXTT8=
EXTT9=
EXTT10=
PLAYORDER=
